<svg width="68" height="68" viewBox="0 0 68 68" fill="none" xmlns="http://www.w3.org/2000/svg">
<circle cx="34" cy="34" r="34" fill="#121936"/>
<path fill-rule="evenodd" clip-rule="evenodd" d="M45.5436 41.5047L38.9999 35.5111L45.5436 29.5175L44.6513 28.564L35.1331 37.2819L25.6149 28.564L24.7226 29.5175L31.2664 35.5111L24.7226 41.5047L25.6149 42.4582L32.233 36.3965L35.1331 39.0528L38.0332 36.3965L44.6513 42.4582L45.5436 41.5047ZM23.5368 26.0667C22.3143 26.0667 21.3232 27.1227 21.3232 28.4207V42.6014C21.3232 43.9016 22.3062 44.9555 23.5368 44.9555H46.7294C47.952 44.9555 48.943 43.8995 48.943 42.6014V28.4207C48.943 27.1206 47.96 26.0667 46.7294 26.0667H23.5368Z" fill="#FFD74B"/>
</svg>
