<svg width="68" height="68" viewBox="0 0 68 68" fill="none" xmlns="http://www.w3.org/2000/svg">
<circle cx="34" cy="34" r="34" fill="#121936"/>
<path fill-rule="evenodd" clip-rule="evenodd" d="M33.9999 22.7969C29.7741 22.7969 25.5382 23.5111 24.0012 24.9348C22.7261 26.1158 22.301 28.2023 22.1577 29.5234C22.1577 29.5234 22.1379 29.654 22.1379 29.7101C22.1379 30.2282 22.5827 30.6436 23.1264 30.6436C23.1906 30.6436 25.568 30.4616 27.0012 30.3496C27.0357 30.3448 27.0705 30.3402 27.105 30.3309C27.6388 30.317 28.0689 29.9061 28.0689 29.3974L28.0737 27.5582C28.0737 26.9887 28.5632 26.5312 29.1662 26.5312H38.8335C39.4366 26.5312 39.9261 26.9886 39.9261 27.5582L39.931 29.3974C39.931 29.9061 40.361 30.317 40.8948 30.3309C40.9291 30.3403 40.9638 30.3448 40.9987 30.3496C42.4321 30.4615 44.8094 30.6436 44.8734 30.6436C45.4169 30.6436 45.8619 30.2282 45.8619 29.7101C45.8619 29.654 45.8422 29.5234 45.8422 29.5234C45.6988 28.2023 45.2742 26.1159 43.999 24.9348C42.4615 23.5111 38.2256 22.7969 33.9999 22.7969ZM33.9999 34.9335C32.9076 34.9335 32.0229 35.769 32.0229 36.8006C32.0229 37.8322 32.9076 38.6677 33.9999 38.6677C35.0922 38.6677 35.9768 37.8322 35.9768 36.8006C35.9768 35.769 35.0922 34.9335 33.9999 34.9335ZM32.5171 30.7323V29.5653C32.5171 28.9212 31.9635 28.3984 31.2815 28.3984C30.5996 28.3984 30.046 28.9213 30.046 29.5653V30.7323L23.3783 37.4588C22.9188 37.8837 22.6321 38.4763 22.6321 39.13V41.0018C22.6321 42.0334 23.5168 42.8689 24.6091 42.8689H25.1033V44.036C25.1033 44.6801 25.657 45.2028 26.339 45.2028C27.0209 45.2028 27.5746 44.6801 27.5746 44.036V42.8689H40.4252V44.036C40.4252 44.6801 40.9786 45.2028 41.6609 45.2028C42.3428 45.2028 42.8963 44.6801 42.8963 44.036V42.8689H43.3906C44.4829 42.8689 45.3676 42.0334 45.3676 41.0018V39.13C45.3676 38.4762 45.0809 37.8836 44.6214 37.4588L37.9539 30.7323V29.5653C37.9539 28.9212 37.4002 28.3984 36.7182 28.3984C36.0363 28.3984 35.4827 28.9213 35.4827 29.5653V30.7323H32.5171ZM33.9999 33.0663C36.1845 33.0663 37.9539 34.7374 37.9539 36.8006C37.9539 38.8638 36.1845 40.5351 33.9999 40.5351C31.8153 40.5351 30.0459 38.8639 30.0459 36.8006C30.0459 34.7374 31.8153 33.0663 33.9999 33.0663Z" fill="#FFD74B"/>
</svg>
