<svg width="62" height="62" viewBox="0 0 62 62" fill="none" xmlns="http://www.w3.org/2000/svg">
<circle cx="31" cy="31" r="31" fill="#FFD74B"/>
<path d="M34.53 43.75H27.71V30.85H25V24.47H27.63C27.43 21.58 27.93 19.47 29.15 18.03C29.7317 17.3909 30.4404 16.8802 31.2308 16.5306C32.0212 16.1811 32.8758 16.0004 33.74 16H38.52V22.15H34.76C34.5385 22.9021 34.4538 23.6879 34.51 24.47H38.51V30.85H34.51L34.53 43.75ZM29.22 42.25H33V29.35H37V26H33V25.24C33 23.24 33 21.45 34 20.78L34.19 20.65H37V17.5H33.78C33.1256 17.4915 32.4768 17.6207 31.8756 17.8791C31.2744 18.1375 30.7342 18.5194 30.29 19C29.29 20.23 28.88 22.29 29.19 25.14L29.29 25.97H26.5V29.35H29.22V42.25Z" fill="#192144"/>
</svg>
