<svg width="62" height="62" viewBox="0 0 62 62" fill="none" xmlns="http://www.w3.org/2000/svg">
<circle cx="31" cy="31" r="31" fill="#FFD74B"/>
<g clip-path="url(#clip0_1369_1165)">
<path d="M36.28 21.4009C37.4249 21.4035 38.5223 21.8594 39.3319 22.669C40.1415 23.4786 40.5974 24.576 40.6 25.7209V36.2809C40.5974 37.4259 40.1415 38.5232 39.3319 39.3328C38.5223 40.1424 37.4249 40.5984 36.28 40.6009H25.72C24.5767 40.5959 23.4818 40.1388 22.6743 39.3295C21.8667 38.5201 21.4121 37.4242 21.4096 36.2809V25.7209C21.4121 24.5776 21.8667 23.4817 22.6743 22.6724C23.4818 21.8631 24.5767 21.406 25.72 21.4009H36.28ZM36.28 19.9609H25.72C24.1923 19.9609 22.7272 20.5678 21.647 21.648C20.5668 22.7282 19.96 24.1933 19.96 25.7209V36.2809C19.96 37.8086 20.5668 39.2737 21.647 40.3539C22.7272 41.4341 24.1923 42.0409 25.72 42.0409H36.28C37.8076 42.0409 39.2727 41.4341 40.3529 40.3539C41.4331 39.2737 42.04 37.8086 42.04 36.2809V25.7209C42.04 24.1933 41.4331 22.7282 40.3529 21.648C39.2727 20.5678 37.8076 19.9609 36.28 19.9609V19.9609Z" fill="#192144"/>
<path d="M31.0095 26.7564C31.8507 26.7564 32.6729 27.0058 33.3723 27.4731C34.0716 27.9404 34.6167 28.6046 34.9386 29.3817C35.2605 30.1588 35.3447 31.0139 35.1806 31.8389C35.0165 32.6639 34.6115 33.4216 34.0167 34.0164C33.422 34.6112 32.6642 35.0162 31.8392 35.1803C31.0143 35.3444 30.1592 35.2602 29.3821 34.9383C28.605 34.6164 27.9408 34.0713 27.4735 33.3719C27.0062 32.6726 26.7567 31.8503 26.7567 31.0092C26.7555 30.4504 26.8646 29.8968 27.0779 29.3802C27.2912 28.8637 27.6044 28.3944 27.9995 27.9992C28.3947 27.604 28.864 27.2908 29.3806 27.0776C29.8971 26.8643 30.4507 26.7551 31.0095 26.7564ZM31.0095 25.3164C29.8832 25.3145 28.7816 25.6468 27.8442 26.2712C26.9067 26.8955 26.1756 27.784 25.7432 28.824C25.3109 29.8641 25.1968 31.009 25.4153 32.1139C25.6339 33.2189 26.1754 34.2341 26.9711 35.0312C27.7669 35.8283 28.7812 36.3715 29.8858 36.5919C30.9903 36.8124 32.1355 36.7002 33.1763 36.2696C34.217 35.839 35.1067 35.1093 35.7327 34.173C36.3586 33.2366 36.6927 32.1356 36.6927 31.0092C36.694 30.2621 36.5479 29.522 36.2629 28.8314C35.9778 28.1408 35.5594 27.5131 35.0316 26.9844C34.5037 26.4556 33.8768 26.0361 33.1866 25.7499C32.4965 25.4637 31.7567 25.3164 31.0095 25.3164Z" fill="#192144"/>
<path d="M36.9041 26.4126C37.6145 26.4126 38.1905 25.8367 38.1905 25.1262C38.1905 24.4158 37.6145 23.8398 36.9041 23.8398C36.1936 23.8398 35.6177 24.4158 35.6177 25.1262C35.6177 25.8367 36.1936 26.4126 36.9041 26.4126Z" fill="#192144"/>
</g>
<defs>
<clipPath id="clip0_1369_1165">
<rect width="24" height="24" fill="white" transform="translate(19 19)"/>
</clipPath>
</defs>
</svg>
